<svg width="56" height="53" viewBox="0 0 56 53" fill="none" xmlns="http://www.w3.org/2000/svg">
<path d="M25.2891 11L25.6575 11.9958C26.1406 13.3015 26.3822 13.9543 26.8585 14.4306C27.3348 14.9068 27.9876 15.1484 29.2933 15.6315L30.2891 16L29.2933 16.3685C27.9876 16.8516 27.3348 17.0932 26.8585 17.5694C26.3822 18.0457 26.1406 18.6985 25.6575 20.0042L25.2891 21L24.9206 20.0042C24.4375 18.6985 24.1959 18.0457 23.7196 17.5694C23.2433 17.0932 22.5905 16.8516 21.2848 16.3685L20.2891 16L21.2848 15.6315C22.5905 15.1484 23.2433 14.9068 23.7196 14.4306C24.1959 13.9543 24.4375 13.3015 24.9206 11.9958L25.2891 11Z" stroke="#232425" stroke-width="1.25" stroke-linejoin="round"/>
<path d="M32.7917 9.33331L33.0066 9.91417C33.2884 10.6758 33.4293 11.0567 33.7072 11.3345C33.985 11.6123 34.3658 11.7532 35.1275 12.035L35.7083 12.25L35.1275 12.4649C34.3658 12.7468 33.985 12.8877 33.7072 13.1655C33.4293 13.4433 33.2884 13.8241 33.0066 14.5858L32.7917 15.1666L32.5767 14.5858C32.2949 13.8241 32.154 13.4433 31.8762 13.1655C31.5983 12.8877 31.2175 12.7468 30.4558 12.4649L29.875 12.25L30.4558 12.035C31.2175 11.7532 31.5983 11.6123 31.8762 11.3345C32.154 11.0567 32.2949 10.6758 32.5767 9.91417L32.7917 9.33331Z" stroke="#232425" stroke-width="1.25" stroke-linejoin="round"/>
<path d="M32.7865 18.5L32.94 18.9149C33.1413 19.4589 33.2419 19.731 33.4404 19.9294C33.6388 20.1278 33.9109 20.2285 34.4549 20.4298L34.8698 20.5833L34.4549 20.7369C33.9109 20.9382 33.6388 21.0388 33.4404 21.2373C33.2419 21.4357 33.1413 21.7077 32.94 22.2518L32.7865 22.6667L32.6329 22.2518C32.4316 21.7077 32.331 21.4357 32.1325 21.2373C31.9341 21.0388 31.6621 20.9382 31.118 20.7369L30.7031 20.5833L31.118 20.4298C31.6621 20.2285 31.9341 20.1278 32.1325 19.9294C32.331 19.731 32.4316 19.4589 32.6329 18.9149L32.7865 18.5Z" stroke="#232425" stroke-width="1.25" stroke-linejoin="round"/>
<path d="M9.98389 42.5L13.0078 34.626H14.1304L17.353 42.5H16.166L15.2476 40.1152H11.9551L11.0903 42.5H9.98389ZM12.2559 39.2666H14.9253L14.1035 37.0859C13.8529 36.4235 13.6667 35.8792 13.5449 35.4531C13.4447 35.958 13.3032 36.4593 13.1206 36.957L12.2559 39.2666ZM18.3628 42.5V34.626H19.4048V42.5H18.3628ZM31.809 40.146L32.436 39.783C32.656 40.025 32.8686 40.289 33.074 40.575C33.2866 40.861 33.4736 41.1433 33.635 41.422C33.8036 41.7007 33.9246 41.9573 33.998 42.192L33.327 42.61C33.2463 42.3827 33.1253 42.126 32.964 41.84C32.81 41.554 32.6303 41.2643 32.425 40.971C32.227 40.6777 32.0216 40.4027 31.809 40.146ZM27.992 39.541L28.575 39.079C28.8243 39.233 29.0736 39.4163 29.323 39.629C29.5796 39.8343 29.818 40.0433 30.038 40.256C30.2653 40.4613 30.445 40.652 30.577 40.828L29.961 41.356C29.829 41.1727 29.653 40.9747 29.433 40.762C29.2203 40.542 28.9856 40.3257 28.729 40.113C28.4796 39.893 28.234 39.7023 27.992 39.541ZM26.551 39.849H27.42V42.115C27.42 42.2763 27.4676 42.3827 27.563 42.434C27.6656 42.4853 27.893 42.511 28.245 42.511C28.311 42.511 28.4173 42.511 28.564 42.511C28.718 42.511 28.894 42.511 29.092 42.511C29.29 42.511 29.488 42.511 29.686 42.511C29.884 42.511 30.0673 42.511 30.236 42.511C30.4046 42.511 30.5293 42.511 30.61 42.511C30.7933 42.511 30.929 42.4853 31.017 42.434C31.1123 42.3827 31.1783 42.2763 31.215 42.115C31.2516 41.9537 31.281 41.7117 31.303 41.389C31.3616 41.433 31.4386 41.4733 31.534 41.51C31.6293 41.5467 31.7246 41.5833 31.82 41.62C31.9153 41.6493 32.0033 41.6713 32.084 41.686C32.04 42.104 31.974 42.4267 31.886 42.654C31.798 42.8887 31.6586 43.0463 31.468 43.127C31.2773 43.215 31.0133 43.259 30.676 43.259C30.6173 43.259 30.5036 43.259 30.335 43.259C30.1736 43.259 29.983 43.259 29.763 43.259C29.543 43.259 29.323 43.259 29.103 43.259C28.883 43.259 28.6886 43.259 28.52 43.259C28.3586 43.259 28.2523 43.259 28.201 43.259C27.7683 43.259 27.431 43.226 27.189 43.16C26.9543 43.094 26.7893 42.9767 26.694 42.808C26.5986 42.6467 26.551 42.4193 26.551 42.126V39.849ZM24.967 40.025L25.748 40.168C25.6526 40.6153 25.5133 41.0773 25.33 41.554C25.154 42.0307 24.9413 42.434 24.692 42.764L23.933 42.401C24.087 42.2177 24.23 41.994 24.362 41.73C24.494 41.466 24.6113 41.1873 24.714 40.894C24.8166 40.5933 24.901 40.3037 24.967 40.025ZM26.287 33.634L26.991 33.304C27.2403 33.59 27.475 33.9053 27.695 34.25C27.915 34.5873 28.0763 34.888 28.179 35.152L27.42 35.537C27.3613 35.361 27.2733 35.163 27.156 34.943C27.0386 34.723 26.903 34.4993 26.749 34.272C26.6023 34.0373 26.4483 33.8247 26.287 33.634ZM30.984 33.271L31.831 33.612C31.589 34.03 31.336 34.4553 31.072 34.888C30.808 35.3207 30.555 35.6947 30.313 36.01L29.642 35.68C29.796 35.4673 29.9536 35.2217 30.115 34.943C30.2836 34.657 30.445 34.3673 30.599 34.074C30.753 33.7807 30.8813 33.513 30.984 33.271ZM26.375 36.263V38.199H31.567V36.263H26.375ZM25.506 35.482H32.48V38.991H25.506V35.482ZM35.153 40.476C35.1456 40.4173 35.1236 40.3403 35.087 40.245C35.0503 40.1423 35.0136 40.0397 34.977 39.937C34.9476 39.8343 34.9146 39.7463 34.878 39.673C35.0026 39.651 35.1346 39.5777 35.274 39.453C35.4133 39.321 35.571 39.156 35.747 38.958C35.8423 38.8627 35.9816 38.7013 36.165 38.474C36.3556 38.2467 36.5646 37.979 36.792 37.671C37.0193 37.363 37.2503 37.0293 37.485 36.67C37.7196 36.3107 37.936 35.9477 38.134 35.581L38.893 36.043C38.4236 36.7763 37.9176 37.4913 37.375 38.188C36.8323 38.8847 36.286 39.497 35.736 40.025V40.047C35.736 40.047 35.7066 40.0617 35.648 40.091C35.5893 40.113 35.5196 40.146 35.439 40.19C35.3656 40.234 35.2996 40.2817 35.241 40.333C35.1823 40.3843 35.153 40.432 35.153 40.476ZM35.153 40.476L35.12 39.783L35.549 39.497L38.838 38.958C38.8306 39.068 38.8306 39.1963 38.838 39.343C38.8526 39.4823 38.8673 39.596 38.882 39.684C38.112 39.8233 37.4923 39.937 37.023 40.025C36.561 40.113 36.2053 40.1827 35.956 40.234C35.714 40.2853 35.5343 40.3293 35.417 40.366C35.307 40.4027 35.219 40.4393 35.153 40.476ZM35.076 37.803C35.0613 37.7443 35.0356 37.6637 34.999 37.561C34.9696 37.4583 34.9366 37.3557 34.9 37.253C34.8633 37.143 34.8266 37.0513 34.79 36.978C34.8926 36.956 34.9953 36.8863 35.098 36.769C35.2006 36.6517 35.307 36.505 35.417 36.329C35.483 36.241 35.5746 36.098 35.692 35.9C35.8093 35.6947 35.9413 35.4527 36.088 35.174C36.2346 34.8953 36.3776 34.5983 36.517 34.283C36.6636 33.9677 36.792 33.6487 36.902 33.326L37.749 33.678C37.5583 34.118 37.3456 34.558 37.111 34.998C36.8836 35.4307 36.6453 35.8487 36.396 36.252C36.1466 36.648 35.8936 37.0073 35.637 37.33V37.352C35.637 37.352 35.6076 37.3667 35.549 37.396C35.4976 37.4253 35.4316 37.4657 35.351 37.517C35.2776 37.561 35.2116 37.6087 35.153 37.66C35.1016 37.7113 35.076 37.759 35.076 37.803ZM35.076 37.803L35.065 37.187L35.483 36.923L37.804 36.725C37.782 36.8277 37.7636 36.945 37.749 37.077C37.7343 37.209 37.727 37.319 37.727 37.407C37.2063 37.4657 36.781 37.517 36.451 37.561C36.121 37.5977 35.8643 37.6307 35.681 37.66C35.505 37.6893 35.373 37.715 35.285 37.737C35.197 37.759 35.1273 37.781 35.076 37.803ZM34.845 41.917C35.1896 41.8583 35.5783 41.7887 36.011 41.708C36.451 41.62 36.913 41.5283 37.397 41.433C37.8883 41.3303 38.376 41.2313 38.86 41.136L38.926 41.895C38.2366 42.0563 37.5436 42.2103 36.847 42.357C36.1576 42.5037 35.538 42.6393 34.988 42.764L34.845 41.917ZM38.948 34.734H44.833V35.526H38.948V34.734ZM39.223 37.242H44.646V38.034H39.223V37.242ZM39.96 42.148H43.942V42.896H39.96V42.148ZM41.489 33.249H42.336V37.649H41.489V33.249ZM39.509 39.156H44.371V43.325H43.546V39.904H40.312V43.369H39.509V39.156Z" fill="#232425"/>
</svg>
